<svg width="484" height="188" viewBox="0 0 484 188" fill="none" xmlns="http://www.w3.org/2000/svg">
<path d="M70.3906 119.469C70.3906 117.281 70.0521 115.328 69.375 113.609C68.75 111.839 67.5781 110.25 65.8594 108.844C64.1927 107.385 61.8229 105.979 58.75 104.625C55.7292 103.219 51.8229 101.76 47.0312 100.25C41.7188 98.5833 36.7708 96.7083 32.1875 94.625C27.6042 92.5417 23.5677 90.1198 20.0781 87.3594C16.6406 84.599 13.9583 81.4219 12.0312 77.8281C10.1042 74.1823 9.14062 69.9635 9.14062 65.1719C9.14062 60.4844 10.1302 56.2135 12.1094 52.3594C14.1406 48.5052 17.0052 45.1979 20.7031 42.4375C24.401 39.625 28.75 37.4635 33.75 35.9531C38.8021 34.4427 44.375 33.6875 50.4688 33.6875C58.9062 33.6875 66.1979 35.224 72.3438 38.2969C78.5417 41.3698 83.3333 45.5365 86.7188 50.7969C90.1042 56.0573 91.7969 61.9688 91.7969 68.5312H70.3906C70.3906 64.9896 69.6354 61.8646 68.125 59.1562C66.6667 56.4479 64.4271 54.3125 61.4062 52.75C58.4375 51.1875 54.6875 50.4062 50.1562 50.4062C45.7812 50.4062 42.1354 51.0573 39.2188 52.3594C36.3542 53.6615 34.1927 55.4323 32.7344 57.6719C31.3281 59.9115 30.625 62.4115 30.625 65.1719C30.625 67.2552 31.1198 69.1302 32.1094 70.7969C33.099 72.4115 34.5833 73.9479 36.5625 75.4062C38.5417 76.8125 40.9896 78.1406 43.9062 79.3906C46.875 80.5885 50.3125 81.7865 54.2188 82.9844C60.4688 84.8594 65.9375 86.9427 70.625 89.2344C75.3646 91.526 79.2969 94.1302 82.4219 97.0469C85.599 99.9635 87.9688 103.245 89.5312 106.891C91.1458 110.536 91.9531 114.677 91.9531 119.312C91.9531 124.208 90.9896 128.583 89.0625 132.438C87.1354 136.292 84.375 139.573 80.7812 142.281C77.1875 144.99 72.8646 147.047 67.8125 148.453C62.8125 149.859 57.2135 150.562 51.0156 150.562C45.4948 150.562 40.026 149.833 34.6094 148.375C29.2448 146.865 24.375 144.625 20 141.656C15.625 138.635 12.1354 134.833 9.53125 130.25C6.92708 125.615 5.625 120.198 5.625 114H27.1875C27.1875 117.594 27.7604 120.667 28.9062 123.219C30.1042 125.719 31.7708 127.776 33.9062 129.391C36.0938 130.953 38.6458 132.099 41.5625 132.828C44.4792 133.557 47.6302 133.922 51.0156 133.922C55.3906 133.922 58.9844 133.323 61.7969 132.125C64.6615 130.875 66.7969 129.156 68.2031 126.969C69.6615 124.781 70.3906 122.281 70.3906 119.469ZM130.469 128.688L148.984 64.4688H162.109L158.203 86.6562L139.531 149H128.203L130.469 128.688ZM120.234 64.4688L134.141 128.844L135.391 149H122.344L100.156 64.4688H120.234ZM179.297 127.906L192.891 64.4688H212.891L190.859 149H177.812L179.297 127.906ZM164.141 64.4688L182.5 128.062L184.922 149H173.594L154.766 86.6562L150.938 64.4688H164.141ZM246.953 64.4688V149H226.25V64.4688H246.953ZM224.844 42.3594C224.844 39.2865 225.885 36.7344 227.969 34.7031C230.104 32.6719 232.969 31.6562 236.562 31.6562C240.156 31.6562 242.995 32.6719 245.078 34.7031C247.214 36.7344 248.281 39.2865 248.281 42.3594C248.281 45.3802 247.214 47.9062 245.078 49.9375C242.995 51.9688 240.156 52.9844 236.562 52.9844C232.969 52.9844 230.104 51.9688 227.969 49.9375C225.885 47.9062 224.844 45.3802 224.844 42.3594ZM306.641 64.4688V79.3125H258.203V64.4688H306.641ZM271.172 43.6875H291.875V124.625C291.875 127.125 292.214 129.052 292.891 130.406C293.568 131.76 294.583 132.672 295.938 133.141C297.292 133.609 298.906 133.844 300.781 133.844C302.135 133.844 303.385 133.766 304.531 133.609C305.677 133.453 306.641 133.297 307.422 133.141L307.5 148.609C305.781 149.182 303.828 149.651 301.641 150.016C299.505 150.38 297.083 150.562 294.375 150.562C289.74 150.562 285.677 149.781 282.188 148.219C278.698 146.604 275.99 144.026 274.062 140.484C272.135 136.891 271.172 132.151 271.172 126.266V43.6875ZM355.078 134.312C357.995 134.312 360.599 133.74 362.891 132.594C365.182 131.448 367.005 129.833 368.359 127.75C369.766 125.667 370.521 123.245 370.625 120.484H390.078C389.974 126.214 388.359 131.344 385.234 135.875C382.109 140.406 377.943 144 372.734 146.656C367.578 149.26 361.797 150.562 355.391 150.562C348.88 150.562 343.203 149.469 338.359 147.281C333.516 145.094 329.479 142.047 326.25 138.141C323.073 134.234 320.677 129.703 319.062 124.547C317.5 119.391 316.719 113.87 316.719 107.984V105.484C316.719 99.599 317.5 94.0781 319.062 88.9219C320.677 83.7656 323.073 79.2344 326.25 75.3281C329.479 71.4219 333.516 68.375 338.359 66.1875C343.203 64 348.854 62.9062 355.312 62.9062C362.135 62.9062 368.125 64.2344 373.281 66.8906C378.49 69.5469 382.552 73.2969 385.469 78.1406C388.438 82.9844 389.974 88.6875 390.078 95.25H370.625C370.521 92.2292 369.844 89.5208 368.594 87.125C367.344 84.7292 365.573 82.8021 363.281 81.3438C360.99 79.8854 358.203 79.1562 354.922 79.1562C351.432 79.1562 348.516 79.8854 346.172 81.3438C343.88 82.8021 342.083 84.8073 340.781 87.3594C339.531 89.8594 338.646 92.6719 338.125 95.7969C337.656 98.8698 337.422 102.099 337.422 105.484V107.984C337.422 111.422 337.656 114.703 338.125 117.828C338.646 120.953 339.531 123.766 340.781 126.266C342.083 128.714 343.88 130.667 346.172 132.125C348.516 133.583 351.484 134.312 355.078 134.312ZM424.062 29V149H403.359V29H424.062ZM420.781 103.688H414.688C414.688 97.8021 415.469 92.3854 417.031 87.4375C418.594 82.4896 420.807 78.1927 423.672 74.5469C426.536 70.849 429.948 67.9844 433.906 65.9531C437.917 63.9219 442.344 62.9062 447.188 62.9062C451.354 62.9062 455.13 63.5052 458.516 64.7031C461.953 65.849 464.896 67.6979 467.344 70.25C469.792 72.8021 471.667 76.1354 472.969 80.25C474.323 84.3125 475 89.2604 475 95.0938V149H454.219V94.9375C454.219 91.0312 453.646 87.9583 452.5 85.7188C451.354 83.4271 449.714 81.7865 447.578 80.7969C445.495 79.8073 442.917 79.3125 439.844 79.3125C436.51 79.3125 433.646 79.9635 431.25 81.2656C428.854 82.5156 426.875 84.2604 425.312 86.5C423.802 88.7396 422.656 91.3177 421.875 94.2344C421.146 97.151 420.781 100.302 420.781 103.688Z" fill="#1890FF"/>
<rect x="217" y="42.3848" width="26" height="26" rx="7.5" transform="rotate(-45 217 42.3848)" fill="#F5222D"/>
</svg>
