<svg width="676" height="188" viewBox="0 0 676 188" fill="none" xmlns="http://www.w3.org/2000/svg">
<rect x="91.7717" y="94.3136" width="50" height="50" rx="15" transform="rotate(-45 91.7717 94.3136)" fill="#F5222D"/>
<rect x="0.136719" y="93.9238" width="130" height="40" rx="15" transform="rotate(-45 0.136719 93.9238)" fill="#1890FF"/>
<rect x="28.2842" y="66.8657" width="130" height="40" rx="15" transform="rotate(45 28.2842 66.8657)" fill="#1890FF"/>
<path d="M262.391 119.469C262.391 117.281 262.052 115.328 261.375 113.609C260.75 111.839 259.578 110.25 257.859 108.844C256.193 107.385 253.823 105.979 250.75 104.625C247.729 103.219 243.823 101.76 239.031 100.25C233.719 98.5833 228.771 96.7083 224.188 94.625C219.604 92.5417 215.568 90.1198 212.078 87.3594C208.641 84.599 205.958 81.4219 204.031 77.8281C202.104 74.1823 201.141 69.9635 201.141 65.1719C201.141 60.4844 202.13 56.2135 204.109 52.3594C206.141 48.5052 209.005 45.1979 212.703 42.4375C216.401 39.625 220.75 37.4635 225.75 35.9531C230.802 34.4427 236.375 33.6875 242.469 33.6875C250.906 33.6875 258.198 35.224 264.344 38.2969C270.542 41.3698 275.333 45.5365 278.719 50.7969C282.104 56.0573 283.797 61.9688 283.797 68.5312H262.391C262.391 64.9896 261.635 61.8646 260.125 59.1562C258.667 56.4479 256.427 54.3125 253.406 52.75C250.438 51.1875 246.688 50.4062 242.156 50.4062C237.781 50.4062 234.135 51.0573 231.219 52.3594C228.354 53.6615 226.193 55.4323 224.734 57.6719C223.328 59.9115 222.625 62.4115 222.625 65.1719C222.625 67.2552 223.12 69.1302 224.109 70.7969C225.099 72.4115 226.583 73.9479 228.562 75.4062C230.542 76.8125 232.99 78.1406 235.906 79.3906C238.875 80.5885 242.312 81.7865 246.219 82.9844C252.469 84.8594 257.938 86.9427 262.625 89.2344C267.365 91.526 271.297 94.1302 274.422 97.0469C277.599 99.9635 279.969 103.245 281.531 106.891C283.146 110.536 283.953 114.677 283.953 119.312C283.953 124.208 282.99 128.583 281.062 132.438C279.135 136.292 276.375 139.573 272.781 142.281C269.188 144.99 264.865 147.047 259.812 148.453C254.812 149.859 249.214 150.562 243.016 150.562C237.495 150.562 232.026 149.833 226.609 148.375C221.245 146.865 216.375 144.625 212 141.656C207.625 138.635 204.135 134.833 201.531 130.25C198.927 125.615 197.625 120.198 197.625 114H219.188C219.188 117.594 219.76 120.667 220.906 123.219C222.104 125.719 223.771 127.776 225.906 129.391C228.094 130.953 230.646 132.099 233.562 132.828C236.479 133.557 239.63 133.922 243.016 133.922C247.391 133.922 250.984 133.323 253.797 132.125C256.661 130.875 258.797 129.156 260.203 126.969C261.661 124.781 262.391 122.281 262.391 119.469ZM322.469 128.688L340.984 64.4688H354.109L350.203 86.6562L331.531 149H320.203L322.469 128.688ZM312.234 64.4688L326.141 128.844L327.391 149H314.344L292.156 64.4688H312.234ZM371.297 127.906L384.891 64.4688H404.891L382.859 149H369.812L371.297 127.906ZM356.141 64.4688L374.5 128.062L376.922 149H365.594L346.766 86.6562L342.938 64.4688H356.141ZM438.953 64.4688V149H418.25V64.4688H438.953ZM416.844 42.3594C416.844 39.2865 417.885 36.7344 419.969 34.7031C422.104 32.6719 424.969 31.6562 428.562 31.6562C432.156 31.6562 434.995 32.6719 437.078 34.7031C439.214 36.7344 440.281 39.2865 440.281 42.3594C440.281 45.3802 439.214 47.9062 437.078 49.9375C434.995 51.9688 432.156 52.9844 428.562 52.9844C424.969 52.9844 422.104 51.9688 419.969 49.9375C417.885 47.9062 416.844 45.3802 416.844 42.3594ZM498.641 64.4688V79.3125H450.203V64.4688H498.641ZM463.172 43.6875H483.875V124.625C483.875 127.125 484.214 129.052 484.891 130.406C485.568 131.76 486.583 132.672 487.938 133.141C489.292 133.609 490.906 133.844 492.781 133.844C494.135 133.844 495.385 133.766 496.531 133.609C497.677 133.453 498.641 133.297 499.422 133.141L499.5 148.609C497.781 149.182 495.828 149.651 493.641 150.016C491.505 150.38 489.083 150.562 486.375 150.562C481.74 150.562 477.677 149.781 474.188 148.219C470.698 146.604 467.99 144.026 466.062 140.484C464.135 136.891 463.172 132.151 463.172 126.266V43.6875ZM547.078 134.312C549.995 134.312 552.599 133.74 554.891 132.594C557.182 131.448 559.005 129.833 560.359 127.75C561.766 125.667 562.521 123.245 562.625 120.484H582.078C581.974 126.214 580.359 131.344 577.234 135.875C574.109 140.406 569.943 144 564.734 146.656C559.578 149.26 553.797 150.562 547.391 150.562C540.88 150.562 535.203 149.469 530.359 147.281C525.516 145.094 521.479 142.047 518.25 138.141C515.073 134.234 512.677 129.703 511.062 124.547C509.5 119.391 508.719 113.87 508.719 107.984V105.484C508.719 99.599 509.5 94.0781 511.062 88.9219C512.677 83.7656 515.073 79.2344 518.25 75.3281C521.479 71.4219 525.516 68.375 530.359 66.1875C535.203 64 540.854 62.9062 547.312 62.9062C554.135 62.9062 560.125 64.2344 565.281 66.8906C570.49 69.5469 574.552 73.2969 577.469 78.1406C580.438 82.9844 581.974 88.6875 582.078 95.25H562.625C562.521 92.2292 561.844 89.5208 560.594 87.125C559.344 84.7292 557.573 82.8021 555.281 81.3438C552.99 79.8854 550.203 79.1562 546.922 79.1562C543.432 79.1562 540.516 79.8854 538.172 81.3438C535.88 82.8021 534.083 84.8073 532.781 87.3594C531.531 89.8594 530.646 92.6719 530.125 95.7969C529.656 98.8698 529.422 102.099 529.422 105.484V107.984C529.422 111.422 529.656 114.703 530.125 117.828C530.646 120.953 531.531 123.766 532.781 126.266C534.083 128.714 535.88 130.667 538.172 132.125C540.516 133.583 543.484 134.312 547.078 134.312ZM616.062 29V149H595.359V29H616.062ZM612.781 103.688H606.688C606.688 97.8021 607.469 92.3854 609.031 87.4375C610.594 82.4896 612.807 78.1927 615.672 74.5469C618.536 70.849 621.948 67.9844 625.906 65.9531C629.917 63.9219 634.344 62.9062 639.188 62.9062C643.354 62.9062 647.13 63.5052 650.516 64.7031C653.953 65.849 656.896 67.6979 659.344 70.25C661.792 72.8021 663.667 76.1354 664.969 80.25C666.323 84.3125 667 89.2604 667 95.0938V149H646.219V94.9375C646.219 91.0312 645.646 87.9583 644.5 85.7188C643.354 83.4271 641.714 81.7865 639.578 80.7969C637.495 79.8073 634.917 79.3125 631.844 79.3125C628.51 79.3125 625.646 79.9635 623.25 81.2656C620.854 82.5156 618.875 84.2604 617.312 86.5C615.802 88.7396 614.656 91.3177 613.875 94.2344C613.146 97.151 612.781 100.302 612.781 103.688Z" fill="#1890FF"/>
<rect x="409" y="42.3848" width="26" height="26" rx="7.5" transform="rotate(-45 409 42.3848)" fill="#F5222D"/>
</svg>
